<?xml version="1.0" encoding="UTF-8" standalone="no"?><!-- Generator: Gravit.io --><svg xmlns="http://www.w3.org/2000/svg" xmlns:xlink="http://www.w3.org/1999/xlink" style="isolation:isolate" viewBox="0 0 623.62 500" width="623.62pt" height="500pt"><g><g><path d=" M 60.372 300.464 L 60.372 115.962 C 60.372 112.841 61.927 111.274 65.061 111.274 L 82.435 111.274 C 85.557 111.274 87.124 112.841 87.124 115.962 L 87.124 178.29 L 88.227 178.29 C 92.815 168.362 102.104 163.398 116.082 163.398 L 128.216 163.398 C 141.818 163.398 152.385 167.121 159.932 174.567 C 167.466 182.013 171.239 192.456 171.239 205.869 L 171.239 262.405 C 171.239 275.831 167.466 286.311 159.932 293.845 C 152.385 301.392 141.818 305.153 128.216 305.153 L 65.061 305.153 C 61.939 305.153 60.372 303.598 60.372 300.464 Z  M 90.158 281.711 L 124.355 281.711 C 137.593 281.711 144.212 274.916 144.212 261.302 L 144.212 207.248 C 144.212 193.647 137.593 186.84 124.355 186.84 L 109.738 186.84 C 94.658 186.84 87.124 194.562 87.124 210.006 L 87.124 278.677 C 87.124 280.708 88.139 281.711 90.158 281.711 Z " fill="rgb(43,0,0)"/><path d=" M 226.672 305.153 L 209.298 305.153 C 206.164 305.153 204.609 303.598 204.609 300.464 L 204.609 115.962 C 204.609 112.841 206.164 111.274 209.298 111.274 L 226.672 111.274 C 229.794 111.274 231.361 112.841 231.361 115.962 L 231.361 300.464 C 231.361 303.598 229.794 305.153 226.672 305.153 Z " fill="rgb(43,0,0)"/><path d=" M 268.868 141.059 L 268.868 115.962 C 268.868 113.029 270.334 111.55 273.28 111.55 L 291.207 111.55 C 294.14 111.55 295.619 113.029 295.619 115.962 L 295.619 141.059 C 295.619 144.193 294.14 145.747 291.207 145.747 L 273.28 145.747 C 270.334 145.747 268.868 144.193 268.868 141.059 Z  M 268.868 300.464 L 268.868 169.189 C 268.868 166.068 270.334 164.501 273.28 164.501 L 290.931 164.501 C 294.052 164.501 295.619 166.068 295.619 169.189 L 295.619 300.464 C 295.619 302.307 295.293 303.548 294.654 304.187 C 294.002 304.839 292.861 305.153 291.207 305.153 L 273.556 305.153 C 270.422 305.153 268.868 303.598 268.868 300.464 Z " fill="rgb(43,0,0)"/><path d=" M 353.81 305.153 L 336.436 305.153 C 333.302 305.153 331.747 303.598 331.747 300.464 L 331.747 169.189 C 331.747 166.068 333.302 164.501 336.436 164.501 L 353.81 164.501 C 356.932 164.501 358.499 166.068 358.499 169.189 L 358.499 179.118 L 359.602 179.118 C 364.014 169.377 373.291 164.501 387.456 164.501 L 399.591 164.501 C 413.004 164.501 423.309 168.186 430.479 175.532 C 437.65 182.891 441.235 193.459 441.235 207.248 L 441.235 300.464 C 441.235 303.598 439.58 305.153 436.271 305.153 L 418.896 305.153 C 415.762 305.153 414.208 303.598 414.208 300.464 L 414.208 208.351 C 414.208 194.75 407.489 187.943 394.075 187.943 L 381.113 187.943 C 366.033 187.943 358.499 195.765 358.499 211.385 L 358.499 300.464 C 358.499 303.598 356.932 305.153 353.81 305.153 Z " fill="rgb(43,0,0)"/><path d=" M 496.392 305.153 L 479.018 305.153 C 475.884 305.153 474.329 303.598 474.329 300.464 L 474.329 115.962 C 474.329 112.841 475.884 111.274 479.018 111.274 L 496.392 111.274 C 499.514 111.274 501.081 112.841 501.081 115.962 L 501.081 300.464 C 501.081 303.598 499.514 305.153 496.392 305.153 Z  M 554.308 164.501 L 574.165 164.501 C 575.819 164.501 576.96 165.015 577.612 166.018 C 578.251 167.033 578.026 168.362 576.922 170.017 L 538.036 231.793 L 538.036 232.896 L 579.956 299.637 C 580.871 301.103 581.009 302.395 580.37 303.498 C 579.718 304.601 578.389 305.153 576.371 305.153 L 558.445 305.153 C 554.208 305.153 551.086 303.598 549.068 300.464 L 510.182 236.757 C 508.891 234.375 508.891 231.893 510.182 229.311 L 546.31 168.913 C 547.965 165.98 550.622 164.501 554.308 164.501 Z " fill="rgb(43,0,0)"/></g><g><path d=" M 60.084 471.089 L 60.084 317.162 C 60.084 314.554 61.388 313.251 63.995 313.251 L 78.487 313.251 C 81.094 313.251 82.398 314.554 82.398 317.162 L 82.398 369.16 L 83.313 369.16 C 87.149 360.874 94.896 356.737 106.554 356.737 L 116.683 356.737 C 128.028 356.737 136.853 359.846 143.146 366.051 C 149.439 372.269 152.586 380.969 152.586 392.163 L 152.586 439.336 C 152.586 450.53 149.439 459.28 143.146 465.561 C 136.853 471.854 128.041 475 116.683 475 L 63.995 475 C 61.388 475 60.084 473.696 60.084 471.089 Z  M 84.93 455.444 L 113.462 455.444 C 124.506 455.444 130.021 449.765 130.021 438.421 L 130.021 393.317 C 130.021 381.972 124.493 376.293 113.462 376.293 L 101.264 376.293 C 88.691 376.293 82.398 382.737 82.398 395.623 L 82.398 452.912 C 82.398 454.604 83.238 455.444 84.93 455.444 Z " fill="rgb(43,0,0)"/><path d=" M 232.878 475 L 212.632 475 C 201.275 475 192.5 471.854 186.282 465.561 C 180.064 459.268 176.968 450.53 176.968 439.336 L 176.968 393.317 C 176.968 381.972 180.077 373.184 186.282 366.967 C 192.5 360.749 201.275 357.652 212.632 357.652 L 232.878 357.652 C 244.072 357.652 252.86 360.761 259.228 366.967 C 265.596 373.184 268.78 381.959 268.78 393.317 L 268.78 439.336 C 268.78 450.53 265.596 459.28 259.228 465.561 C 252.847 471.866 244.072 475 232.878 475 Z  M 215.854 455.444 L 229.894 455.444 C 240.938 455.444 246.454 449.841 246.454 438.646 L 246.454 394.006 C 246.454 382.812 240.926 377.208 229.894 377.208 L 215.854 377.208 C 210.025 377.208 205.8 378.55 203.205 381.232 C 200.598 383.915 199.294 388.177 199.294 394.006 L 199.294 438.646 C 199.294 444.475 200.598 448.738 203.205 451.42 C 205.8 454.103 210.012 455.444 215.854 455.444 Z " fill="rgb(43,0,0)"/><path d=" M 337.564 475 L 328.588 475 C 317.231 475 308.456 471.854 302.238 465.561 C 296.02 459.268 292.924 450.53 292.924 439.336 L 292.924 393.317 C 292.924 381.972 296.033 373.184 302.238 366.967 C 308.456 360.749 317.231 357.652 328.588 357.652 L 380.123 357.652 C 382.881 357.652 384.26 358.956 384.26 361.564 L 384.26 471.089 C 384.26 473.696 382.881 475 380.123 475 L 365.632 475 C 363.024 475 361.72 473.696 361.72 471.089 L 361.72 462.803 L 360.805 462.803 C 357.12 470.938 349.373 475 337.564 475 Z  M 361.72 435.888 L 361.72 379.515 C 361.72 377.985 360.881 377.208 359.188 377.208 L 331.81 377.208 C 320.766 377.208 315.25 382.887 315.25 394.232 L 315.25 438.408 C 315.25 449.765 320.779 455.432 331.81 455.432 L 342.854 455.432 C 355.427 455.444 361.72 448.926 361.72 435.888 Z " fill="rgb(43,0,0)"/><path d=" M 431.432 475 L 416.941 475 C 414.333 475 413.029 473.696 413.029 471.089 L 413.029 361.564 C 413.029 358.956 414.333 357.652 416.941 357.652 L 431.432 357.652 C 434.039 357.652 435.343 358.956 435.343 361.564 L 435.343 370.301 L 436.258 370.301 C 437.788 366.465 440.746 363.394 445.121 361.1 C 449.496 358.793 454.36 357.652 459.738 357.652 L 468.25 357.652 C 470.857 357.652 472.161 358.956 472.161 361.564 L 472.161 373.523 C 472.161 376.444 470.857 377.66 468.25 377.208 L 454.448 377.208 C 441.711 377.208 435.356 384.191 435.356 398.143 L 435.356 471.076 C 435.343 473.696 434.039 475 431.432 475 Z " fill="rgb(43,0,0)"/><path d=" M 533.824 475 L 522.091 475 C 511.047 475 502.573 471.891 496.668 465.686 C 490.764 459.468 487.805 450.693 487.805 439.336 L 487.805 393.317 C 487.805 381.809 490.751 372.996 496.668 366.854 C 502.573 360.724 511.047 357.652 522.091 357.652 L 533.824 357.652 C 545.633 357.652 553.305 361.714 556.828 369.85 L 557.743 369.85 L 557.743 317.162 C 557.743 314.554 559.046 313.251 561.654 313.251 L 576.383 313.251 C 578.991 313.251 580.295 314.554 580.295 317.162 L 580.295 471.089 C 580.295 473.696 578.991 475 576.383 475 L 561.654 475 C 559.046 475 557.743 473.696 557.743 471.089 L 557.743 462.803 L 556.828 462.803 C 553.292 470.938 545.633 475 533.824 475 Z  M 557.743 435.888 L 557.743 396.777 C 557.743 383.739 551.45 377.221 538.876 377.221 L 526.679 377.221 C 515.635 377.221 510.119 382.9 510.119 394.244 L 510.119 438.421 C 510.119 449.778 515.647 455.444 526.679 455.444 L 538.876 455.444 C 551.462 455.444 557.743 448.926 557.743 435.888 Z " fill="rgb(43,0,0)"/></g><mask id="_mask_HhFxQCmmEhcDQuMZmmAI8UdWy2QQ2QYP" x="-200%" y="-200%" width="400%" height="400%"><rect x="-200%" y="-200%" width="400%" height="400%" style="fill:white;"/><path d=" M 37.996 103.89 C 37.996 103.89 65.734 119.347 71.788 169.49 C 76.751 210.582 64.978 120.814 64.978 120.814" fill="black" stroke="none"/></mask><path d=" M 37.996 103.89 C 37.996 103.89 65.734 119.347 71.788 169.49 C 76.751 210.582 64.978 120.814 64.978 120.814" fill="rgb(0,0,0)" mask="url(#_mask_HhFxQCmmEhcDQuMZmmAI8UdWy2QQ2QYP)" vector-effect="non-scaling-stroke" stroke-width="16" stroke="rgb(0,0,0)" stroke-linejoin="miter" stroke-linecap="butt" stroke-miterlimit="10"/><path d=" M 37.996 103.89 C 37.996 103.89 65.734 119.347 71.788 169.49 C 76.751 210.582 64.978 120.814 64.978 120.814" fill="rgb(0,0,0)"/><mask id="_mask_nESAdZIA4Y8bhaUVHkeSheK8qbTsH4yb" x="-200%" y="-200%" width="400%" height="400%"><rect x="-200%" y="-200%" width="400%" height="400%" style="fill:white;"/><path d=" M 106.028 81.514 C 106.028 101.132 90.12 117.028 70.514 117.028 C 50.895 117.028 35 101.12 35 81.514 C 35 61.895 50.908 46 70.514 46 C 90.132 45.987 106.028 61.895 106.028 81.514 Z " fill="black" stroke="none"/></mask><path d=" M 106.028 81.514 C 106.028 101.132 90.12 117.028 70.514 117.028 C 50.895 117.028 35 101.12 35 81.514 C 35 61.895 50.908 46 70.514 46 C 90.132 45.987 106.028 61.895 106.028 81.514 Z " fill="rgb(255,255,255)" mask="url(#_mask_nESAdZIA4Y8bhaUVHkeSheK8qbTsH4yb)" vector-effect="non-scaling-stroke" stroke-width="28" stroke="rgb(0,0,0)" stroke-linejoin="miter" stroke-linecap="butt" stroke-miterlimit="10"/><path d=" M 106.028 81.514 C 106.028 101.132 90.12 117.028 70.514 117.028 C 50.895 117.028 35 101.12 35 81.514 C 35 61.895 50.908 46 70.514 46 C 90.132 45.987 106.028 61.895 106.028 81.514 Z " fill="rgb(255,255,255)"/></g></svg>